<svg xmlns="http://www.w3.org/2000/svg" data-name="Layer 1" width="887" height="793" style=""><rect id="backgroundrect" width="100%" height="100%" x="0" y="0" fill="none" stroke="none"/><title>lost_online</title><g class="currentLayer" style=""><title>Layer 1</title><ellipse cx="719.9170532226562" cy="768" rx="167.0829620361328" ry="25" fill="#e6e6e6" id="svg_1"/><circle cx="652.8590087890625" cy="178.4249267578125" r="71.88313293457031" fill="#f2f2f2" id="svg_3"/><circle cx="432.0750732421875" cy="32.60485076904297" r="6.161409854888916" fill="#ff6584" id="svg_4"/><circle cx="632.3209228515625" cy="445.41943359375" r="6.161409854888916" fill="#ff6584" id="svg_5"/><circle cx="652.8590087890625" cy="32.60485076904297" r="6.161409854888916" fill="#f2f2f2" id="svg_6"/><circle cx="739.1187133789062" cy="329.3795166015625" r="6.161409854888916" fill="#f2f2f2" id="svg_7"/><circle cx="493.6891784667969" cy="198.9629669189453" r="6.161409854888916" fill="#f2f2f2" id="svg_8"/><circle cx="168.16128540039062" cy="157.8868865966797" r="6.161409854888916" fill="#f2f2f2" id="svg_9"/><circle cx="284.2012023925781" cy="413.58544921875" r="209.4879913330078" fill="#0092ff" id="svg_10"/><circle cx="274.9590759277344" cy="328.35260009765625" r="30.80706024169922" opacity="0.2" id="svg_11"/><circle cx="274.9590759277344" cy="534.7598876953125" r="53.39889907836914" opacity="0.2" id="svg_12"/><circle cx="119.89688873291016" cy="453.6346435546875" r="13.349720001220703" opacity="0.2" id="svg_13"/><circle cx="646.6058959960938" cy="141.346435546875" r="7.096630096435547" opacity="0.2" id="svg_14"/><circle cx="345.7236328125" cy="282.031982421875" r="7.096630096435547" opacity="0.2" id="svg_15"/><circle cx="265.7169494628906" cy="422.82757568359375" r="9.242119789123535" opacity="0.2" id="svg_16"/><circle cx="629.3319091796875" cy="198.0460968017578" r="7.096630096435547" opacity="0.2" id="svg_17"/><circle cx="438.3281555175781" cy="372.6194152832031" r="7.096630096435547" opacity="0.2" id="svg_18"/><circle cx="692.926513671875" cy="191.35289001464844" r="10.250679969787598" opacity="0.2" id="svg_19"/><circle cx="379.7214050292969" cy="444.9976501464844" r="10.250679969787598" opacity="0.2" id="svg_20"/><circle cx="154.81155395507812" cy="328.35260009765625" r="13.349720001220703" opacity="0.2" id="svg_21"/><path d="M329.58946,534.3377 a586.0229,586.0229 0 0 1 -65.92931,-3.8097700000000003 c-65.831,-7.47613 -126.5456,-25.142 -170.95911,-49.74257 c-44.957,-24.90237 -67.96155,-54.06077 -64.777,-82.104 c2.20623,-19.42891 20.9853,-36.81905 57.40973,-53.16223 a2.05428,2.05428 0 0 1 1.68175,3.74859 c-34.98737,15.69736 -52.98122,32.01246 -55.00995,49.87695 c-2.98544,26.28527 19.277,54.0026 62.68614,78.04755 c43.95221,24.3458 104.12425,41.83723 169.4318,49.25419 c65.308,7.417 127.86934,3.8629100000000003 176.16181,-10.00628 c47.69579,-13.69871 75.60666,-35.71794 78.59109,-62.00321 c2.01971,-17.78226 -7.775,-36.63654 -28.325,-54.52609 a2.05423,2.05423 0 0 1 2.69762,-3.09876 c21.61508,18.81718 31.88812,38.90394 29.709,58.08815 c-3.185,28.04325 -32.14183,51.301 -81.53842,65.48706 C409.25809000000004,529.62438 370.87062000000003,534.3377 329.58946,534.3377 z" fill="#fff" id="svg_22"/><polygon points="651.786 721.101 653.241 734.201 640.142 732.745 640.142 716.734 651.786 721.101" fill="#ffb8b8" id="svg_23"/><polygon points="788.607 721.101 787.151 734.201 800.251 732.745 800.251 716.734 788.607 721.101" fill="#ffb8b8" id="svg_24"/><path d="M650.33033,438.72552 l-5.82218,149.921 s-18.92206,112.07687 -14.55543,114.988 s0,18.92207 0,18.92207 l24.74424,2.91109 s0,-11.64435 5.82218,-16.011 s59.67729,-209.5983 59.67729,-209.5983 l55.31066,197.954 s-1.45554,11.64435 2.91109,11.64435 s5.82218,16.011 5.82218,16.011 H808.9846 v-16.011 s7.27772,-1.45554 2.91109,-13.09989 s-20.37762,-257.63125 -20.37762,-257.63125 z" fill="#2f2e41" id="svg_25"/><path d="M643.05261,721.101 s-7.27772,-4.36663 -10.18881,-1.45554 s-26.19978,32.022 -26.19978,32.022 s-32.022,20.37761 -2.91109,26.19979 s50.944,-21.83316 52.39957,-24.74425 s-1.45554,-26.19979 -2.91108,-23.2887 s-5.82218,1.4555500000000001 -7.27772,0 S643.05261,721.101 643.05261,721.101 z" fill="#2f2e41" id="svg_26"/><path d="M797.34025,721.101 s7.27772,-4.36663 10.18881,-1.45554 s26.19978,32.022 26.19978,32.022 s32.022,20.37761 2.91109,26.19979 s-50.944,-21.83316 -52.39957,-24.74425 s1.45554,-26.19979 2.91108,-23.2887 s5.82218,1.4555500000000001 7.27772,0 S797.34025,721.101 797.34025,721.101 z" fill="#2f2e41" id="svg_27"/><circle cx="738.3907470703125" cy="193.46640014648438" r="29.83864974975586" fill="#ffb8b8" id="svg_28"/><polygon points="718.741 210.205 714.374 255.327 749.307 262.605 758.041 208.75 718.741 210.205" fill="#ffb8b8" id="svg_29"/><path d="M755.12948,245.13819999999998 s-8.73326,18.92207 -40.75523,-1.45554 L654.697,438.72552 s80.05491,48.03294 130.99894,11.64435 L768.22937,253.87146 z" fill="#575a89" id="svg_30"/><path d="M720.19643,223.305 l-27.65533,-4.36663 L689.63,237.86048 s-37.84414,4.36663 -42.21077,18.92207 l4.36663,107.71024 s-13.09989,23.2887 -1.45554,37.84414 c0,0 -18.92207,39.29968 -4.36663,46.5774 c0,0 33.4775,-16.011 53.85512,-11.64435 c0,0 11.64435,-2.91109 11.64435,-11.64435 S720.19643,223.305 720.19643,223.305 z" fill="#2f2e41" id="svg_31"/><path d="M753.67394,226.21613000000002 l16.011,4.36663 l1.45554,20.37761 s39.29968,24.74425 40.75523,39.29969 s-29.11088,84.42153 -29.11088,84.42153 s11.64435,20.37762 7.27772,33.47751 c0,0 18.92207,37.84414 7.27772,48.03295 c0,0 -21.83316,5.82217 -24.74424,-2.91109 s-29.11088,-109.16578 -17.46653,-157.19873 C755.12948,296.08223 743.48513,234.94939 753.67394,226.21613000000002 z" fill="#2f2e41" id="svg_32"/><path d="M770.41269,273.61839 h-0.5478500000000001 V258.61012 a8.68638,8.68638 0 0 0 -8.68641,-8.6864 h-31.797 a8.68638,8.68638 0 0 0 -8.68641,8.6864 v82.33656 a8.68638,8.68638 0 0 0 8.68641,8.68639 h31.797 a8.68638,8.68638 0 0 0 8.68641,-8.68639 V284.30153 h0.5478500000000001 z" fill="#fff" id="svg_33"/><path d="M784.24036,332.47083 S772.596,294.62669 755.12948,306.271 s11.64435,43.66631 11.64435,43.66631 z" fill="#ffb8b8" id="svg_34"/><path d="M704.18545,304.81549 s20.37761,-24.74424 30.56642,-13.09989 s-17.46653,37.84414 -17.46653,37.84414 z" fill="#ffb8b8" id="svg_35"/><path d="M651.78587,255.327 s-7.27772,-1.4555500000000001 -11.64435,11.64435 s-20.37761,62.58838 -20.37761,71.32164 s5.82218,43.66631 37.84414,37.84414 s69.8661,-46.5774 69.8661,-46.5774 l-20.37761,-30.56642 l-43.66632,26.19979 z" fill="#2f2e41" id="svg_36"/><polygon points="658.075 293.062 664.158 324.465 709.28 298.266 667.069 314.277 657.763 291.188 658.075 293.062" opacity="0.1" id="svg_37"/><polygon points="786.424 324.465 792.246 328.832 795.157 308.454 786.424 324.465" opacity="0.1" id="svg_38"/><path d="M651.0581,379.776 s42.75331,-11.63082 62.85965,-37.1096 C713.91775,342.6664 693.26887,376.86491 651.0581,379.776 z" opacity="0.1" id="svg_39"/><path d="M758.76834,353.57621 s9.00267,44.05947 32.15667,45.31843 C790.925,398.89464 763.135,407.43133 758.76834,353.57621 z" opacity="0.1" id="svg_40"/><path d="M806.07351,284.43788 s4.36663,2.91109 7.27772,16.011 s21.83316,62.58838 14.55544,74.23273 s-18.92207,37.84414 -43.66631,20.37762 l-24.74425,-45.12186 l24.74425,-23.2887 l10.1888,7.27772 z" fill="#2f2e41" id="svg_41"/><path d="M709.74555,201.03418 s-25.025,-40.55779 1.6300000000000001,-42.66723 a67.95611,67.95611 0 0 0 25.562,-6.96507 c8.83551,-4.4960700000000005 19.95734,-7.91352 25.8758,-0.99239 a43.97842,43.97842 0 0 0 8.94648,8.288 c5.19893,3.44787 11.2143,9.03721 7.88336,15.03291 l-5.46075,9.82934 l-7.6451,19.6587 c1.78034,-8.47934 1.82512,-15.59877 -2.73039,-19.11263 c0,0 -25.41622,10.8161 -38.22508,-8.73719 C711.2432,164.61033 706.6813,198.47265 709.74555,201.03418 z" fill="#2f2e41" id="svg_42"/><circle cx="745.66845703125" cy="279.3434753417969" r="7.277719974517822" fill="#0092ff" id="svg_43"/></g></svg>